<svg width="1549" height="162" viewBox="0 0 1549 162" fill="none" xmlns="http://www.w3.org/2000/svg">
<path d="M745.5 82.6002L850.1 66.8785L734.5 53.6611L745.5 82.6002Z" fill="#0A5392" stroke="#0A5392" stroke-linejoin="bevel"/>
<path d="M850.1 1H735.5L734.5 53.6608L850.1 1Z" fill="#237ABA" stroke="#237ABA" stroke-linejoin="bevel"/>
<path d="M850.1 66.8782V1L734.5 53.6608L850.1 66.8782Z" fill="#0E5997" stroke="#0E5997" stroke-linejoin="bevel"/>
<path d="M735.5 1H693.9L734.5 53.6608L735.5 1Z" fill="#004481" stroke="#004481" stroke-linejoin="bevel"/>
<path d="M734.5 53.6613L642.9 47.4004L745.5 82.6003L734.5 53.6613Z" fill="#125E9D" stroke="#125E9D" stroke-linejoin="bevel"/>
<path d="M798.5 161L912.1 95.1214L850.1 66.8779L798.5 161Z" fill="#1C6FAE" stroke="#1C6FAE" stroke-linejoin="bevel"/>
<path d="M850.1 66.8782L987.6 62.0086L850.1 1V66.8782Z" fill="#034987" stroke="#034987" stroke-linejoin="bevel"/>
<path d="M745.5 82.5997L798.5 161L850.1 66.8779L745.5 82.5997Z" fill="#125E9D" stroke="#125E9D" stroke-linejoin="bevel"/>
<path d="M693.9 1L642.9 47.3999L734.5 53.6608L693.9 1Z" fill="#034987" stroke="#034987" stroke-linejoin="bevel"/>
<path d="M745.5 82.5996L688.9 161H798.5L745.5 82.5996Z" fill="#034987" stroke="#034987" stroke-linejoin="bevel"/>
<path d="M995.6 161L967.6 83.9912L912.1 95.1216L995.6 161Z" fill="#237ABA" stroke="#237ABA" stroke-linejoin="bevel"/>
<path d="M912.1 95.1218L987.6 62.0088L850.1 66.8783L912.1 95.1218Z" fill="#125E9D" stroke="#125E9D" stroke-linejoin="bevel"/>
<path d="M628.9 129.904L688.9 161L745.5 82.5996L628.9 129.904Z" fill="#1663A3" stroke="#1663A3" stroke-linejoin="bevel"/>
<path d="M798.5 160.999H905.1L912.1 95.1211L798.5 160.999Z" fill="#0E5997" stroke="#0E5997" stroke-linejoin="bevel"/>
<path d="M642.9 47.4004L628.9 129.905L745.5 82.6003L642.9 47.4004Z" fill="#004481" stroke="#004481" stroke-linejoin="bevel"/>
<path d="M1088.2 73.1392L987.6 62.0088L967.6 83.9914L1088.2 73.1392Z" fill="#0A5392" stroke="#0A5392" stroke-linejoin="bevel"/>
<path d="M967.6 83.9914L987.6 62.0088L912.1 95.1218L967.6 83.9914Z" fill="#074E8C" stroke="#074E8C" stroke-linejoin="bevel"/>
<path d="M591.4 1L584.4 38.3565L642.9 47.3999L591.4 1Z" fill="#125E9D" stroke="#125E9D" stroke-linejoin="bevel"/>
<path d="M642.9 47.3999L584.4 38.3564L628.9 129.904L642.9 47.3999Z" fill="#0A5392" stroke="#0A5392" stroke-linejoin="bevel"/>
<path d="M693.9 1H591.4L642.9 47.3999L693.9 1Z" fill="#1969A9" stroke="#1969A9" stroke-linejoin="bevel"/>
<path d="M987.6 62.0086L1005.6 1H850.1L987.6 62.0086Z" fill="#004481" stroke="#004481" stroke-linejoin="bevel"/>
<path d="M905.1 160.999H995.6L912.1 95.1211L905.1 160.999Z" fill="#1663A3" stroke="#1663A3" stroke-linejoin="bevel"/>
<path d="M987.6 62.0086L1088.2 73.139L1005.6 1L987.6 62.0086Z" fill="#1C6FAE" stroke="#1C6FAE" stroke-linejoin="bevel"/>
<path d="M514.4 130.6L545.4 161L628.9 129.904L514.4 130.6Z" fill="#0E5997" stroke="#0E5997" stroke-linejoin="bevel"/>
<path d="M628.9 129.904L545.4 161H688.9L628.9 129.904Z" fill="#1C6FAE" stroke="#1C6FAE" stroke-linejoin="bevel"/>
<path d="M514.4 130.6L628.9 129.904L584.4 38.3564L514.4 130.6Z" fill="#074E8C" stroke="#074E8C" stroke-linejoin="bevel"/>
<path d="M995.6 160.999L1088.2 73.1387L967.6 83.9908L995.6 160.999Z" fill="#1969A9" stroke="#1969A9" stroke-linejoin="bevel"/>
<path d="M458.8 66.8781L514.4 130.6L584.4 38.3564L458.8 66.8781Z" fill="#074E8C" stroke="#074E8C" stroke-linejoin="bevel"/>
<path d="M414.8 1L458.8 66.8782L584.4 38.3565L414.8 1Z" fill="#237ABA" stroke="#237ABA" stroke-linejoin="bevel"/>
<path d="M995.6 160.999L1119.2 123.643L1088.2 73.1387L995.6 160.999Z" fill="#074E8C" stroke="#074E8C" stroke-linejoin="bevel"/>
<path d="M995.6 161H1111.2L1119.2 123.644L995.6 161Z" fill="#125E9D" stroke="#125E9D" stroke-linejoin="bevel"/>
<path d="M1088.2 73.139L1136.2 1H1005.6L1088.2 73.139Z" fill="#034987" stroke="#034987" stroke-linejoin="bevel"/>
<path d="M1186.8 43.9217L1136.2 1L1088.2 73.139L1186.8 43.9217Z" fill="#0A5392" stroke="#0A5392" stroke-linejoin="bevel"/>
<path d="M429.8 131.295L460.8 161L514.4 130.6L429.8 131.295Z" fill="#237ABA" stroke="#237ABA" stroke-linejoin="bevel"/>
<path d="M514.4 130.6L460.8 161H545.4L514.4 130.6Z" fill="#1663A3" stroke="#1663A3" stroke-linejoin="bevel"/>
<path d="M458.8 66.8779L429.8 131.295L514.4 130.6L458.8 66.8779Z" fill="#034987" stroke="#034987" stroke-linejoin="bevel"/>
<path d="M591.4 1H414.8L584.4 38.3565L591.4 1Z" fill="#0E5997" stroke="#0E5997" stroke-linejoin="bevel"/>
<path d="M458.8 66.8779L349.2 120.86L429.8 131.295L458.8 66.8779Z" fill="#237ABA" stroke="#237ABA" stroke-linejoin="bevel"/>
<path d="M1119.2 123.644L1186.8 43.9219L1088.2 73.1392L1119.2 123.644Z" fill="#0A5392" stroke="#0A5392" stroke-linejoin="bevel"/>
<path d="M1231.8 88.1653L1186.8 43.9219L1119.2 123.644L1231.8 88.1653Z" fill="#004481" stroke="#004481" stroke-linejoin="bevel"/>
<path d="M1186.8 43.9217L1205.8 1H1136.2L1186.8 43.9217Z" fill="#1663A3" stroke="#1663A3" stroke-linejoin="bevel"/>
<path d="M1220.8 161L1231.8 88.165L1119.2 123.643L1220.8 161Z" fill="#0A5392" stroke="#0A5392" stroke-linejoin="bevel"/>
<path d="M1186.8 43.9217L1314.4 31.4L1205.8 1L1186.8 43.9217Z" fill="#0A5392" stroke="#0A5392" stroke-linejoin="bevel"/>
<path d="M317.2 46.7041L349.2 120.861L458.8 66.878L317.2 46.7041Z" fill="#1663A3" stroke="#1663A3" stroke-linejoin="bevel"/>
<path d="M429.8 131.296L309.2 161H460.8L429.8 131.296Z" fill="#0A5392" stroke="#0A5392" stroke-linejoin="bevel"/>
<path d="M1111.2 161H1220.8L1119.2 123.644L1111.2 161Z" fill="#1C6FAE" stroke="#1C6FAE" stroke-linejoin="bevel"/>
<path d="M414.8 1L317.2 46.7043L458.8 66.8782L414.8 1Z" fill="#125E9D" stroke="#125E9D" stroke-linejoin="bevel"/>
<path d="M325.2 1L317.2 46.7043L414.8 1H325.2Z" fill="#0E5997" stroke="#0E5997" stroke-linejoin="bevel"/>
<path d="M247.6 160.999H309.2L349.2 120.86L247.6 160.999Z" fill="#1663A3" stroke="#1663A3" stroke-linejoin="bevel"/>
<path d="M349.2 120.86L309.2 160.999L429.8 131.295L349.2 120.86Z" fill="#034987" stroke="#034987" stroke-linejoin="bevel"/>
<path d="M1360.4 95.122L1314.4 31.4004L1231.8 88.1655L1360.4 95.122Z" fill="#074E8C" stroke="#074E8C" stroke-linejoin="bevel"/>
<path d="M1231.8 88.1655L1314.4 31.4004L1186.8 43.9221L1231.8 88.1655Z" fill="#1C6FAE" stroke="#1C6FAE" stroke-linejoin="bevel"/>
<path d="M1314.4 31.4L1312.4 1H1205.8L1314.4 31.4Z" fill="#0A5392" stroke="#0A5392" stroke-linejoin="bevel"/>
<path d="M1220.8 161H1301.4L1231.8 88.165L1220.8 161Z" fill="#0E5997" stroke="#0E5997" stroke-linejoin="bevel"/>
<path d="M325.2 1L244.6 32.0956L317.2 46.7043L325.2 1Z" fill="#0E5997" stroke="#0E5997" stroke-linejoin="bevel"/>
<path d="M192.6 83.9912L247.6 161L349.2 120.861L192.6 83.9912Z" fill="#237ABA" stroke="#237ABA" stroke-linejoin="bevel"/>
<path d="M192.6 83.991L349.2 120.861L317.2 46.7041L192.6 83.991Z" fill="#0A5392" stroke="#0A5392" stroke-linejoin="bevel"/>
<path d="M325.2 1H232.6L244.6 32.0956L325.2 1Z" fill="#0E5997" stroke="#0E5997" stroke-linejoin="bevel"/>
<path d="M244.6 32.0957L192.6 83.9913L317.2 46.7044L244.6 32.0957Z" fill="#034987" stroke="#034987" stroke-linejoin="bevel"/>
<path d="M1301.4 161L1360.4 95.1216L1231.8 88.165L1301.4 161Z" fill="#0E5997" stroke="#0E5997" stroke-linejoin="bevel"/>
<path d="M1314.4 31.4L1437.9 1H1312.4L1314.4 31.4Z" fill="#1969A9" stroke="#1969A9" stroke-linejoin="bevel"/>
<path d="M135.1 1L192.6 83.9912L244.6 32.0956L135.1 1Z" fill="#125E9D" stroke="#125E9D" stroke-linejoin="bevel"/>
<path d="M1454.9 56.4434L1437.9 1L1314.4 31.4L1454.9 56.4434Z" fill="#0A5392" stroke="#0A5392" stroke-linejoin="bevel"/>
<path d="M1360.4 95.122L1454.9 56.4438L1314.4 31.4004L1360.4 95.122Z" fill="#2074B4" stroke="#2074B4" stroke-linejoin="bevel"/>
<path d="M1462.9 95.1216L1454.9 56.4434L1360.4 95.1216H1462.9Z" fill="#1663A3" stroke="#1663A3" stroke-linejoin="bevel"/>
<path d="M232.6 1H135.1L244.6 32.0956L232.6 1Z" fill="#1663A3" stroke="#1663A3" stroke-linejoin="bevel"/>
<path d="M85.0996 49.4873L132.1 110.426L192.6 83.9916L85.0996 49.4873Z" fill="#125E9D" stroke="#125E9D" stroke-linejoin="bevel"/>
<path d="M192.6 83.9912L132.1 110.426L247.6 161L192.6 83.9912Z" fill="#237ABA" stroke="#237ABA" stroke-linejoin="bevel"/>
<path d="M1471.9 160.999L1462.9 95.1211H1360.4L1471.9 160.999Z" fill="#034987" stroke="#034987" stroke-linejoin="bevel"/>
<path d="M1301.4 160.999H1471.9L1360.4 95.1211L1301.4 160.999Z" fill="#1C6FAE" stroke="#1C6FAE" stroke-linejoin="bevel"/>
<path d="M135.1 1L85.0996 49.4869L192.6 83.9912L135.1 1Z" fill="#034987" stroke="#034987" stroke-linejoin="bevel"/>
<path d="M0.5 83.2959L84.1 161L132.1 110.426L0.5 83.2959Z" fill="#0E5997" stroke="#0E5997" stroke-linejoin="bevel"/>
<path d="M132.1 110.426L84.0996 161H247.6L132.1 110.426Z" fill="#125E9D" stroke="#125E9D" stroke-linejoin="bevel"/>
<path d="M1548.5 88.8612V49.4873L1454.9 56.4438L1548.5 88.8612Z" fill="#237ABA" stroke="#237ABA" stroke-linejoin="bevel"/>
<path d="M1454.9 56.4434L1548.5 1H1437.9L1454.9 56.4434Z" fill="#0A5392" stroke="#0A5392" stroke-linejoin="bevel"/>
<path d="M1548.5 88.8607L1454.9 56.4434L1462.9 95.1216L1548.5 88.8607Z" fill="#004481" stroke="#004481" stroke-linejoin="bevel"/>
<path d="M1548.5 160.999V88.8604L1462.9 95.1212L1548.5 160.999Z" fill="#1969A9" stroke="#1969A9" stroke-linejoin="bevel"/>
<path d="M1548.5 49.4869V1L1454.9 56.4434L1548.5 49.4869Z" fill="#034987" stroke="#034987" stroke-linejoin="bevel"/>
<path d="M1471.9 160.999H1548.5L1462.9 95.1211L1471.9 160.999Z" fill="#004481" stroke="#004481" stroke-linejoin="bevel"/>
<path d="M0.5 1V34.8782L85.1 49.4869L0.5 1Z" fill="#074E8C" stroke="#074E8C" stroke-linejoin="bevel"/>
<path d="M85.1 49.4873L0.5 83.296L132.1 110.426L85.1 49.4873Z" fill="#004481" stroke="#004481" stroke-linejoin="bevel"/>
<path d="M0.5 34.8779V83.2953L85.1 49.4866L0.5 34.8779Z" fill="#1C6FAE" stroke="#1C6FAE" stroke-linejoin="bevel"/>
<path d="M135.1 1H0.5L85.1 49.4869L135.1 1Z" fill="#004481" stroke="#004481" stroke-linejoin="bevel"/>
<path d="M0.5 83.2959V161H84.1L0.5 83.2959Z" fill="#034987" stroke="#034987" stroke-linejoin="bevel"/>
</svg>
